<?xml version="1.0" encoding="UTF-8"?>
<svg version="1.1" xmlns="http://www.w3.org/2000/svg" width="1254" height="1254">
<path d="M0 0 C413.82 0 827.64 0 1254 0 C1254 413.82 1254 827.64 1254 1254 C840.18 1254 426.36 1254 0 1254 C0 840.18 0 426.36 0 0 Z " fill="#000000" transform="translate(0,0)"/>
<path d="M0 0 C0.84793121 -0.00100708 1.69586243 -0.00201416 2.56948853 -0.00305176 C38.01435969 0.02509387 73.28353561 4.61944204 107.875 12.25 C109.14851318 12.529646 109.14851318 12.529646 110.44775391 12.81494141 C121.26241062 15.2385813 131.81706881 18.38798109 142.375 21.75 C143.53233643 22.11770508 144.68967285 22.48541016 145.88208008 22.86425781 C153.38528983 25.30227555 160.63878232 28.11229896 167.875 31.25 C168.84083008 31.66217773 169.80666016 32.07435547 170.80175781 32.49902344 C198.65139686 44.42136975 226.05919577 57.72023131 250.875 75.25 C251.926875 75.97960937 252.97875 76.70921875 254.0625 77.4609375 C269.38068868 88.16757765 283.92820998 99.81844738 297.875 112.25 C299.25558594 113.46236328 299.25558594 113.46236328 300.6640625 114.69921875 C307.91882805 121.19087496 314.7955296 128.06637661 321.6875 134.9375 C322.18781738 135.43513855 322.68813477 135.9327771 323.20361328 136.44549561 C328.98064989 142.19906952 334.60629932 148.02335375 339.875 154.25 C340.78748089 155.30623114 341.70022656 156.3622336 342.61328125 157.41796875 C363.11699142 181.46860299 380.65332875 207.57163381 395.875 235.25 C396.39852051 236.19842773 396.92204102 237.14685547 397.46142578 238.12402344 C428.55326091 294.89712793 444.99170332 357.02055857 450.875 421.25 C450.98521484 422.44520264 450.98521484 422.44520264 451.09765625 423.66455078 C455.71925076 477.0464257 449.71430735 532.84663933 434.875 584.25 C434.53210937 585.49007812 434.18921875 586.73015625 433.8359375 588.0078125 C425.24239271 618.65186786 413.055248 647.80736969 398.875 676.25 C398.44719238 677.10964355 398.01938477 677.96928711 397.57861328 678.85498047 C391.09066832 691.78711987 383.67216689 704.06924574 375.875 716.25 C375.16601562 717.35859375 374.45703125 718.4671875 373.7265625 719.609375 C364.18290643 734.18660495 353.72609649 748.01622626 342.49462891 761.32617188 C341.01044047 763.08912105 339.53985119 764.86224696 338.07421875 766.640625 C332.88074326 772.91094784 327.47092456 778.96513712 321.9375 784.9375 C321.29820557 785.63367432 320.65891113 786.32984863 320.00024414 787.04711914 C319.39301514 787.69543701 318.78578613 788.34375488 318.16015625 789.01171875 C317.62269775 789.58881592 317.08523926 790.16591309 316.53149414 790.76049805 C312.52527272 794.36284983 308.64959544 794.79209771 303.421875 794.70703125 C299.20795256 793.95085192 296.49783924 791.5465961 293.875 788.25 C292.46513057 784.02039171 291.85571382 780.65146304 292.875 776.25 C296.90030411 769.82954888 302.43232716 764.59021234 307.84375 759.33984375 C311.01724966 756.07480083 313.8090847 752.51795606 316.65625 748.96875 C318.66280471 746.51001394 320.73575602 744.15548151 322.875 741.8125 C359.38598367 701.06106744 384.50036119 648.57488704 401.875 597.25 C402.17857422 596.36473633 402.48214844 595.47947266 402.79492188 594.56738281 C407.31861422 581.20284406 410.56103315 567.55650501 413.6875 553.8125 C413.88263184 552.96259491 414.07776367 552.11268982 414.27880859 551.23703003 C416.53786932 541.34012996 418.39713411 531.54968609 419.48706055 521.45288086 C419.875 518.25 419.875 518.25 420.36634827 516.32957458 C424.637988 498.86537885 423.19295385 479.34976609 423.13574219 461.44970703 C423.12432678 457.8420302 423.1311519 454.23464772 423.1426115 450.62698078 C423.20031464 429.28963854 422.24687258 408.36857194 418.5625 387.3125 C418.3459375 386.04889648 418.129375 384.78529297 417.90625 383.48339844 C405.35226557 311.58825348 376.21665355 244.54741295 330.875 187.25 C330.14925781 186.32960938 329.42351563 185.40921875 328.67578125 184.4609375 C323.5941988 178.12948648 318.1837633 172.16565741 312.64453125 166.23828125 C310.51583608 163.95606416 308.45685621 161.63013449 306.4375 159.25 C298.95390365 150.61084833 290.60521735 142.61320822 281.875 135.25 C280.85054752 134.36315027 279.8272124 133.475009 278.8046875 132.5859375 C275.18541883 129.44540807 271.53839313 126.33891304 267.875 123.25 C267.01092529 122.52055176 267.01092529 122.52055176 266.12939453 121.77636719 C231.86927781 93.07220805 191.5208309 71.05199662 149.875 55.25 C149.16641846 54.97865234 148.45783691 54.70730469 147.7277832 54.42773438 C96.98457268 35.14518785 42.98794057 27.52589085 -11.125 29.25 C-12.40955078 29.28867188 -13.69410156 29.32734375 -15.01757812 29.3671875 C-67.71665075 31.25028626 -120.33694447 44.03783341 -168.125 66.25 C-169.13626953 66.7138208 -169.13626953 66.7138208 -170.16796875 67.18701172 C-196.07251675 79.08253387 -220.95536788 93.34639315 -243.43457031 110.94042969 C-246.00139822 112.92894282 -248.63045211 114.8317484 -251.25 116.75 C-255.66994483 120.06795317 -259.9264111 123.53448259 -264.125 127.125 C-264.90641357 127.79305664 -264.90641357 127.79305664 -265.70361328 128.47460938 C-275.40325182 136.87016905 -284.72140554 145.65964463 -293.78979492 154.72949219 C-295.31737416 156.25486713 -296.85283582 157.77200672 -298.38867188 159.2890625 C-304.75279533 165.61711271 -310.5425315 172.21060462 -316.125 179.25 C-317.1975086 180.54395273 -318.27388847 181.83471416 -319.35546875 183.12109375 C-337.55225237 204.97596252 -352.85525107 229.12473842 -366.125 254.25 C-366.59260742 255.13461914 -367.06021484 256.01923828 -367.54199219 256.93066406 C-393.33261653 306.14876392 -412.71027578 364.21257197 -414.6875 420.25 C-414.74819695 421.8126237 -414.81194763 423.37513209 -414.87890625 424.9375 C-414.90283447 425.60136719 -414.9267627 426.26523437 -414.95141602 426.94921875 C-415.09220905 428.81537005 -415.34356327 430.6729435 -415.62768555 432.52270508 C-416.14922083 436.4315314 -416.30350379 440.26402782 -416.328125 444.19921875 C-416.33513931 444.95679977 -416.34215363 445.7143808 -416.34938049 446.49491882 C-416.36697991 448.97583944 -416.37324945 451.45651891 -416.375 453.9375 C-416.37567474 454.79635803 -416.37634949 455.65521606 -416.37704468 456.5401001 C-416.27135752 542.11508949 -392.61782212 627.55782968 -296.01904297 763.01513672 C-283.7397879 775.99195415 -283.7397879 775.99195415 -283.84375 783.15234375 C-284.43465184 787.55948663 -287.02980374 790.28365036 -290.25 793.125 C-294.64209612 794.84364631 -298.48869279 795.21292534 -303.125 794.25 C-306.30710282 792.40291733 -308.61065127 789.91170983 -311.125 787.25 C-312.49736506 785.9094579 -313.86980219 784.56898766 -315.24414062 783.23046875 C-320.11782132 778.44252262 -324.70217699 773.45490756 -329.125 768.25 C-330.01452965 767.23471636 -330.90525986 766.22048392 -331.796875 765.20703125 C-357.57251433 735.76253441 -379.03266673 701.83502904 -395.98974609 666.60791016 C-396.79732819 664.93057083 -397.61078035 663.25605227 -398.42822266 661.58349609 C-412.28282557 633.11770848 -422.74584108 603.83192865 -430.18896484 573.08300781 C-431.03572633 569.61557031 -431.92550085 566.16311625 -432.83203125 562.7109375 C-437.24871038 545.39886478 -439.37674817 527.82056423 -441.40248108 510.09884644 C-441.82715012 506.4383584 -442.38310483 502.8579492 -443.125 499.25 C-445.56485468 470.0922305 -444.69989442 440.35550301 -442.125 411.25 C-442.01285156 409.9520752 -442.01285156 409.9520752 -441.8984375 408.62792969 C-441.43743835 403.4822401 -440.83510875 398.36702248 -440.125 393.25 C-439.99899414 392.33541016 -439.87298828 391.42082031 -439.74316406 390.47851562 C-437.62129664 375.45393017 -434.60676384 360.77924232 -430.84667969 346.08203125 C-430.1956524 343.52725571 -429.56659751 340.96838235 -428.9453125 338.40625 C-413.44326509 275.5913623 -381.74054353 216.31101877 -341.125 166.25 C-340.43921875 165.38890625 -339.7534375 164.5278125 -339.046875 163.640625 C-333.51828208 156.75971438 -327.63619535 150.28977041 -321.60839844 143.85107422 C-320.21335699 142.34536622 -318.84400832 140.81596949 -317.4765625 139.28515625 C-310.40092559 131.37021706 -302.79635241 124.13121454 -294.97753906 116.95410156 C-293.35909497 115.46533775 -291.75135075 113.96636882 -290.1484375 112.4609375 C-283.13840612 105.94719153 -275.72134233 100.05211423 -268.125 94.25 C-267.36477539 93.66524902 -266.60455078 93.08049805 -265.82128906 92.47802734 C-254.58192624 83.84707892 -243.20391768 75.66431621 -231.125 68.25 C-230.3299707 67.75854492 -229.53494141 67.26708984 -228.71582031 66.76074219 C-182.83147744 38.54747131 -133.68080213 19.71159606 -81.125 8.25 C-80.31530762 8.07339844 -79.50561523 7.89679688 -78.67138672 7.71484375 C-62.74955593 4.34771211 -46.29703317 2.97227003 -30.125 1.25 C-29.11018555 1.14107422 -28.09537109 1.03214844 -27.04980469 0.91992188 C-18.0463881 0.05772766 -9.03722152 0.00751215 0 0 Z " fill="#C65329" transform="translate(623.125,185.75)"/>
<path d="M0 0 C3.35032419 0.01984135 6.69971113 0.02300774 10.05002022 0.01673603 C23.86361613 -0.0026888 37.39656811 0.204555 51.0612793 2.33618164 C52.19138428 2.49038574 53.32148926 2.64458984 54.48583984 2.8034668 C59.74964412 3.54776509 64.91360408 4.48654371 70.08862305 5.70336914 C71.79139404 6.102052 71.79139404 6.102052 73.52856445 6.50878906 C74.69436035 6.78182861 75.86015625 7.05486816 77.0612793 7.33618164 C79.31775077 7.85067539 81.5742613 8.36499787 83.83081055 8.87915039 C102.99389294 13.31769814 122.40646657 18.04910741 140.0847168 26.91430664 C142.58900351 28.11058008 145.06462732 29.12549962 147.65112305 30.12133789 C153.72758659 32.52363437 159.46880261 35.48709808 165.2487793 38.52368164 C166.35084717 39.10102051 167.45291504 39.67835938 168.58837891 40.27319336 C196.9010052 55.21440894 223.06418037 74.06584294 246.46362305 95.92211914 C248.64460649 97.94895789 250.85868151 99.90512858 253.1237793 101.83618164 C261.04295365 108.71596436 268.2908519 116.33476744 275.0612793 124.33618164 C275.84631836 125.23208008 276.63135742 126.12797852 277.44018555 127.05102539 C289.48710345 140.88806556 300.19438093 155.88053351 310.0612793 171.33618164 C310.70395752 172.3375415 310.70395752 172.3375415 311.35961914 173.35913086 C322.76196897 191.23432138 333.31850931 210.22563014 340.6862793 230.14868164 C341.83195116 233.24353349 342.98874541 236.19473254 344.49511719 239.13232422 C347.17590553 244.61634378 348.95389676 250.42655049 350.8737793 256.21118164 C351.09404785 256.87213837 351.31431641 257.53309509 351.54125977 258.21408081 C356.77718631 273.99244279 361.6666822 290.09581314 363.6394043 306.65258789 C364.02778413 309.48468058 364.02778413 309.48468058 365.04174805 312.74243164 C367.90299175 322.82804163 368.30975434 333.54451369 368.81518555 343.97290039 C368.9444646 347.12635763 368.9444646 347.12635763 369.56658936 349.28207397 C370.08747616 351.44495921 370.20143924 353.34283519 370.22241211 355.56518555 C370.2318837 356.39734589 370.24135529 357.22950623 370.25111389 358.08688354 C370.25769264 359.43618454 370.25769264 359.43618454 370.2644043 360.81274414 C370.27132797 361.75860382 370.27825165 362.7044635 370.28538513 363.6789856 C370.30279785 366.77309244 370.30899099 369.86702787 370.3112793 372.96118164 C370.31261871 374.01551392 370.31395813 375.06984619 370.31533813 376.15612793 C370.2997359 432.8557328 370.2997359 432.8557328 363.12768555 454.10180664 C362.1947903 456.93124718 361.52370556 459.64596099 360.9050293 462.55493164 C358.24216884 475.06896473 355.02357469 487.2224845 350.9362793 499.33618164 C350.51668945 500.58077148 350.09709961 501.82536133 349.66479492 503.10766602 C346.47353347 512.40921005 342.89372815 521.49778683 338.9987793 530.52368164 C338.26981445 532.21557617 338.26981445 532.21557617 337.52612305 533.94165039 C337.04272461 535.0618457 336.55932617 536.18204102 336.0612793 537.33618164 C335.60366211 538.42801758 335.14604492 539.51985352 334.67456055 540.64477539 C324.35700047 564.66809849 310.68018008 587.40640642 295.0612793 608.33618164 C294.63008789 608.91754883 294.19889648 609.49891602 293.75463867 610.09790039 C288.27633339 617.45279872 282.47769785 624.50399071 276.5065918 631.46118164 C274.94878958 633.29271907 273.43711419 635.16526133 271.9909668 637.08618164 C269.43164023 640.0703357 267.5500774 641.1027892 263.6940918 641.70727539 C259.28712728 641.82397071 256.07810037 641.89950577 252.5612793 639.02368164 C248.42259171 634.57459249 247.40637914 631.92670698 247.5769043 625.99243164 C248.48564401 621.00902029 251.76143786 618.01593903 255.0612793 614.33618164 C257.14951658 611.85712094 259.20113816 609.34882495 261.2487793 606.83618164 C261.80831299 606.15072266 262.36784668 605.46526367 262.94433594 604.7590332 C277.34916721 586.96374399 289.01326108 567.46206262 299.9387207 547.39331055 C300.99560201 545.45653762 302.06372889 543.52646326 303.13549805 541.59790039 C306.25919322 535.92024062 308.89119155 530.43309483 311.0612793 524.33618164 C311.69156921 523.07827253 312.33825258 521.82847997 312.9987793 520.58618164 C315.66912464 515.39837333 317.29400902 509.8799002 319.0612793 504.33618164 C320.58378992 499.71371954 322.13898783 495.10261225 323.7097168 490.49633789 C326.62693336 481.91038209 329.46482926 473.31238709 331.9362793 464.58618164 C332.13914551 463.88501221 332.34201172 463.18384277 332.55102539 462.46142578 C333.74596593 458.1314446 334.36086025 453.94425392 334.78637695 449.47680664 C335.19038042 446.33088979 336.17684157 443.3781114 337.0612793 440.33618164 C337.66325598 437.09984031 338.1150336 433.84720787 338.5612793 430.58618164 C338.67858398 429.77536133 338.79588867 428.96454102 338.91674805 428.12915039 C339.32744949 425.20124658 339.69930164 422.27053396 340.0612793 419.33618164 C340.18785416 418.32811462 340.18785416 418.32811462 340.31698608 417.29968262 C341.82936565 405.0359365 342.42608555 392.93839191 342.3737793 380.58618164 C342.37154358 379.26472137 342.37154358 379.26472137 342.3692627 377.91656494 C344.15663819 338.64778415 344.15663819 338.64778415 334.0612793 304.33618164 C333.63629591 302.07062273 333.2479498 299.79818477 332.8737793 297.52368164 C329.69490522 279.56457631 323.77453107 261.03929732 316.0300293 244.51977539 C314.88467111 241.93810109 313.95630455 239.30581422 312.9987793 236.64868164 C304.66863445 214.80121586 292.27972689 194.53061956 279.0612793 175.33618164 C278.58932129 174.64492188 278.11736328 173.95366211 277.63110352 173.24145508 C270.94194154 163.46481781 263.94040951 154.18282269 256.0612793 145.33618164 C255.2362793 144.40032227 254.4112793 143.46446289 253.5612793 142.50024414 C241.95091378 129.58017275 229.80727782 116.98662459 216.0612793 106.33618164 C214.35155696 104.90033396 212.64327824 103.46276595 210.9362793 102.02368164 C190.7145451 85.52549624 168.31836598 72.54969711 145.07763672 60.85571289 C143.15872541 59.88903511 141.24426227 58.91343772 139.3359375 57.92602539 C134.122226 55.24826717 128.93437635 53.05612487 123.3737793 51.21118164 C119.43313032 49.88206576 115.56653858 48.56127345 111.7644043 46.86743164 C106.84530906 44.71170844 101.66612463 43.3861632 96.4987793 41.96118164 C95.39832275 41.65664063 94.29786621 41.35209961 93.1640625 41.03833008 C79.09693045 37.19550277 64.98267814 33.79995028 50.5612793 31.58618164 C49.80935303 31.47048828 49.05742676 31.35479492 48.28271484 31.2355957 C34.42837815 29.25962225 20.56148513 29.14979614 6.59594727 29.15087891 C3.46315754 29.14870033 0.33072551 29.13050336 -2.80200195 29.11157227 C-21.12703895 29.05811675 -38.79120597 30.58007446 -56.7512207 34.21118164 C-58.01385742 34.45481445 -59.27649414 34.69844727 -60.57739258 34.94946289 C-81.29673374 39.04034048 -102.66189601 44.5739886 -121.9387207 53.33618164 C-123.22016321 53.88953952 -124.50280634 54.44012196 -125.78637695 54.98852539 C-157.12737846 68.41985225 -185.92087375 86.28846541 -211.9387207 108.33618164 C-212.97329223 109.18585245 -214.00848294 110.0347697 -215.04418945 110.88305664 C-228.39176521 121.93383464 -241.35322801 134.14276917 -252.0012207 147.84790039 C-254.07763833 150.51458997 -256.28327387 153.03627237 -258.5012207 155.58618164 C-271.78424008 171.55055586 -282.73387098 189.29749067 -292.9387207 207.33618164 C-293.38940918 208.12283203 -293.84009766 208.90948242 -294.30444336 209.7199707 C-296.82359283 214.16486582 -298.97499881 218.61131488 -300.9387207 223.33618164 C-301.81911171 225.15074319 -302.69987357 226.96514385 -303.58959961 228.77514648 C-309.2115199 240.30924159 -313.65784041 252.25057627 -317.9387207 264.33618164 C-318.22489258 265.13717285 -318.51106445 265.93816406 -318.8059082 266.76342773 C-327.09821321 290.31131614 -331.93845762 315.60635356 -334.9387207 340.33618164 C-335.0432959 341.18873535 -335.14787109 342.04128906 -335.25561523 342.91967773 C-336.2607147 352.72781765 -336.08908546 362.5954665 -336.0690918 372.44311523 C-336.06375678 375.56507274 -336.06904906 378.68688489 -336.07543945 381.80883789 C-336.09413769 425.0548405 -329.30322176 471.49821783 -310.9230957 511.08618164 C-309.87185555 513.48901628 -309.03128814 515.91532497 -308.1887207 518.39868164 C-300.67238416 539.30619247 -288.51903501 560.09601222 -275.9387207 578.33618164 C-275.26075439 579.32642334 -275.26075439 579.32642334 -274.5690918 580.33666992 C-266.33211604 592.32497621 -257.86821999 604.17513927 -247.8762207 614.77368164 C-244.33796293 618.64049193 -242.6262363 621.13070639 -241.9387207 626.33618164 C-241.7737207 627.49118164 -241.6087207 628.64618164 -241.4387207 629.83618164 C-242.12080378 634.6107632 -244.44468625 637.13180807 -247.9387207 640.33618164 C-251.74554747 642.23959502 -255.81055898 642.05359413 -259.9387207 641.33618164 C-263.15205521 639.50168128 -265.45102057 637.05003633 -267.9387207 634.33618164 C-268.61161133 633.64524414 -269.28450195 632.95430664 -269.9777832 632.24243164 C-277.28373666 624.48483743 -283.60254728 615.88615339 -289.9387207 607.33618164 C-290.44838379 606.65136719 -290.95804687 605.96655273 -291.4831543 605.26098633 C-308.59962564 582.11554609 -323.3685213 556.12616979 -333.9387207 529.33618164 C-334.49946289 527.96139648 -334.49946289 527.96139648 -335.0715332 526.55883789 C-336.56026133 522.89215564 -337.98911459 519.20786396 -339.37231445 515.50024414 C-340.34136188 512.90504515 -341.34025092 510.33125903 -342.3684082 507.75805664 C-345.91795182 498.74029718 -348.48869168 489.7366718 -350.72387695 480.31274414 C-351.63639557 476.48472488 -352.68337447 472.72164372 -353.81201172 468.95263672 C-367.11509591 424.02687244 -368.43862117 373.55526025 -361.9387207 327.33618164 C-361.79345947 326.29510254 -361.64819824 325.25402344 -361.49853516 324.18139648 C-360.27554005 315.83199302 -358.66872022 307.58064773 -356.8762207 299.33618164 C-356.72798859 298.65241455 -356.57975647 297.96864746 -356.42703247 297.26416016 C-351.95657004 276.84292501 -345.88444559 256.68352602 -337.9387207 237.33618164 C-337.46813232 236.17940918 -337.46813232 236.17940918 -336.98803711 234.99926758 C-324.96461292 205.63908048 -309.9595519 177.78315254 -290.9387207 152.33618164 C-290.27598145 151.44817871 -290.27598145 151.44817871 -289.59985352 150.54223633 C-286.76523052 146.76485282 -283.87010794 143.03924201 -280.9387207 139.33618164 C-280.20137695 138.40418945 -279.4640332 137.47219727 -278.7043457 136.51196289 C-273.51080588 130.05687173 -268.00028762 123.93495001 -262.35913086 117.87426758 C-260.91770481 116.31342466 -259.4944674 114.73771054 -258.07543945 113.15649414 C-253.6481523 108.23449118 -249.21843775 103.47467226 -244.13012695 99.21899414 C-241.88925008 97.29367747 -239.75395085 95.27489813 -237.61450195 93.23828125 C-230.18127285 86.20213597 -222.24797291 79.98642419 -214.03344727 73.89135742 C-212.05479605 72.42235879 -210.08581103 70.9412856 -208.1184082 69.45727539 C-184.21658075 51.54432215 -157.6715177 35.4561043 -129.39575195 25.56274414 C-126.15904015 24.41435148 -123.0282707 23.13469926 -119.8762207 21.77368164 C-109.09285965 17.23331909 -98.05877188 13.95013703 -86.70043945 11.23852539 C-83.47272478 10.46427608 -80.27089345 9.62745315 -77.0637207 8.77368164 C-71.07149248 7.25907147 -65.0072846 6.28336596 -58.90405273 5.33789062 C-54.79819856 4.75877416 -54.79819856 4.75877416 -50.9387207 3.33618164 C-34.14369111 0.01084798 -17.04751075 -0.10782276 0 0 Z " fill="#C65229" transform="translate(623.938720703125,267.663818359375)"/>
<path d="M0 0 C0.90589874 -0.00358521 1.81179749 -0.00717041 2.74514771 -0.01086426 C14.99649689 -0.03691239 27.01970973 0.65602411 39.18917847 2.06495667 C41.38025589 2.31309523 43.57256723 2.53634352 45.76708984 2.75170898 C55.21271624 3.69627162 63.95187455 5.8720007 73.015625 8.609375 C75.39914417 9.31969528 77.79093511 9.99139651 80.1875 10.65625 C98.72570055 15.88071901 116.38975368 23.2553623 133.375 32.3125 C134.09107422 32.68987305 134.80714844 33.06724609 135.54492188 33.45605469 C151.56353229 41.93772135 166.23062906 52.00409316 180.375 63.3125 C181.85613281 64.48425781 181.85613281 64.48425781 183.3671875 65.6796875 C197.63731374 77.33543947 211.25399137 90.6007598 222.375 105.3125 C223.37056091 106.57046476 224.36812838 107.82684292 225.3671875 109.08203125 C245.92690711 135.13415061 262.20954579 164.62238092 272.62939453 196.12890625 C273.32448249 198.16455351 274.07860518 200.16394155 274.859375 202.16796875 C280.43718442 216.90307665 283.662209 232.56102918 286.25 248.0625 C286.55429932 249.87935303 286.55429932 249.87935303 286.86474609 251.73291016 C289.29408769 267.05854917 289.53542414 282.16489934 289.50537109 297.64453125 C289.49999992 300.93754658 289.50535024 304.23042624 289.51171875 307.5234375 C289.51105803 309.65364613 289.50977701 311.78385467 289.5078125 313.9140625 C289.50983673 314.8800235 289.51186096 315.8459845 289.51394653 316.84121704 C289.48311287 325.98640411 289.09367727 335.05671584 286.92382812 343.96630859 C286.28681135 346.68949865 285.78839724 349.42264012 285.296875 352.17578125 C276.2229413 402.45206654 254.58816965 460.61528418 217.375 497.3125 C212.81126453 499.65834533 208.41687464 500.18240091 203.375 499.3125 C200.01125866 497.58786991 197.89876548 495.21718582 196 491.9375 C195.00080418 487.74087757 194.36679868 484.33684124 196.3671875 480.3203125 C198.58421409 476.90083081 201.05741515 473.71567509 203.578125 470.515625 C239.77157348 424.51491951 262.41675985 362.7553947 261.84155273 304.03076172 C261.81250407 300.81295114 261.82103464 297.59679367 261.83398438 294.37890625 C261.81555438 275.45786599 260.05076593 256.6576267 255.8125 238.1875 C255.56346924 237.09042725 255.31443848 235.99335449 255.05786133 234.86303711 C250.09833409 213.97362014 242.92976079 193.5403847 233.375 174.3125 C232.98876465 173.52375488 232.6025293 172.73500977 232.20458984 171.92236328 C220.46157155 148.11427093 204.890438 126.32480509 186.375 107.3125 C185.81135742 106.72839355 185.24771484 106.14428711 184.66699219 105.54248047 C177.29833464 97.92765849 169.81170976 90.75297707 161.375 84.3125 C160.71967285 83.80251465 160.0643457 83.2925293 159.38916016 82.76708984 C147.33121249 73.41266949 134.8225015 65.51235253 121.375 58.3125 C120.66778809 57.92868164 119.96057617 57.54486328 119.23193359 57.14941406 C98.32415725 45.87686327 75.41591167 38.52173889 52.25 33.5625 C51.33371826 33.36374268 50.41743652 33.16498535 49.47338867 32.96020508 C34.21219636 29.84875164 19.01282389 28.98053975 3.46948242 29.05175781 C0.67930594 29.06253164 -2.11023275 29.05175946 -4.90039062 29.0390625 C-15.33060054 29.03093713 -25.31893646 29.58325635 -35.625 31.3125 C-36.41060303 31.43286621 -37.19620605 31.55323242 -38.00561523 31.67724609 C-47.81594427 33.21323715 -57.22049874 35.76299241 -66.68652344 38.71582031 C-68.41191265 39.24690989 -70.14683868 39.7467897 -71.8828125 40.2421875 C-108.66334272 50.8718548 -141.05224495 71.2176847 -169.625 96.3125 C-171.11193359 97.61380859 -171.11193359 97.61380859 -172.62890625 98.94140625 C-177.36474625 103.16178067 -181.8308893 107.42554242 -185.90625 112.2890625 C-187.09772942 113.69175872 -188.33050961 115.06000423 -189.59375 116.3984375 C-196.52127605 123.75265899 -202.29700757 131.84993332 -208.08203125 140.11523438 C-209.43495911 142.04187215 -210.80781004 143.95189888 -212.1875 145.859375 C-228.1875187 168.41597629 -240.563742 195.5898493 -247.625 222.3125 C-247.80836914 222.96234863 -247.99173828 223.61219727 -248.18066406 224.28173828 C-249.86193047 230.24982923 -251.2970329 236.25646152 -252.625 242.3125 C-252.97643066 243.90022217 -252.97643066 243.90022217 -253.33496094 245.52001953 C-262.50572199 288.71716606 -259.5863646 335.25489386 -246.625 377.3125 C-246.03681053 379.30180272 -245.44955802 381.29138274 -244.86328125 383.28125 C-241.81262439 393.43697406 -238.29120436 403.0030183 -233.52539062 412.47753906 C-232.58113259 414.40190006 -231.69955163 416.34633025 -230.828125 418.3046875 C-222.50633752 436.88797642 -211.76618956 454.5179367 -198.4921875 469.99609375 C-189.92980134 480.08454307 -189.92980134 480.08454307 -189.75 485.8125 C-190.27178041 489.78455336 -191.23409165 493.04492526 -193.625 496.3125 C-197.61754877 499.16432055 -201.51001743 500.05764891 -206.34765625 499.82421875 C-218.55409904 497.08143315 -229.67400872 476.38944839 -236.0703125 466.421875 C-250.95348606 442.69709716 -262.8294842 417.90099622 -271.625 391.3125 C-271.94839355 390.35666016 -272.27178711 389.40082031 -272.60498047 388.41601562 C-277.42985308 374.05751095 -280.56303549 359.63731031 -283.0234375 344.69995117 C-283.43490039 342.38296758 -283.90125605 340.07524558 -284.4140625 337.77856445 C-287.03931348 325.66099974 -287.17581502 313.74118973 -287.125 301.375 C-287.12390228 300.27733307 -287.12280457 299.17966614 -287.12167358 298.04873657 C-287.06724879 279.02580077 -285.50077253 260.92941162 -281.625 242.3125 C-281.43276855 241.33796875 -281.24053711 240.3634375 -281.04248047 239.359375 C-275.51954378 211.72001358 -265.83383691 184.21342673 -252.625 159.3125 C-252.26599609 158.6225293 -251.90699219 157.93255859 -251.53710938 157.22167969 C-233.33933274 122.37182198 -207.07251828 88.22793339 -175.625 64.3125 C-174.31817779 63.29012589 -173.01226178 62.26659288 -171.70703125 61.2421875 C-135.10669754 32.67566474 -92.09067939 11.52465654 -46.0703125 3.734375 C-44.48125348 3.46022424 -42.89494175 3.16944805 -41.3125 2.859375 C-27.60594625 0.17363136 -13.9165509 0.02208195 0 0 Z " fill="#C6532A" transform="translate(624.625,348.6875)"/>
<path d="M0 0 C1.39307121 -0.0146228 1.39307121 -0.0146228 2.81428528 -0.02954102 C41.04950975 -0.34846854 41.04950975 -0.34846854 58.37890625 4.23828125 C59.11206055 4.4202002 59.84521484 4.60211914 60.60058594 4.78955078 C65.60953164 6.04684334 70.49652943 7.55881297 75.37890625 9.23828125 C76.58015137 9.64771973 76.58015137 9.64771973 77.80566406 10.06542969 C119.93913823 24.66933399 156.24272083 52.14346958 182.37890625 88.23828125 C182.77932129 88.78758301 183.17973633 89.33688477 183.59228516 89.90283203 C206.94278181 122.31892625 223.25281599 164.46995852 223.6171875 204.6953125 C223.63174232 206.03437149 223.63174232 206.03437149 223.64659119 207.40048218 C223.67147165 210.28396128 223.68411582 213.16720554 223.69140625 216.05078125 C223.69402466 217.03470856 223.69664307 218.01863586 223.69934082 219.03237915 C223.70392696 235.12365549 222.62476303 250.43846716 219.37890625 266.23828125 C219.09816872 267.75896902 218.81815873 269.27979139 218.5390625 270.80078125 C213.09927651 298.42037941 197.03335581 343.02819588 172.9375 359.953125 C169.03304036 361.91429633 165.64684386 362.05730449 161.37890625 361.23828125 C157.83238462 359.27717501 155.62113315 356.6016216 153.37890625 353.23828125 C152.27063151 346.70461508 153.78932242 341.66146331 157.37890625 336.23828125 C158.72211101 334.47985345 160.07766948 332.73083379 161.44140625 330.98828125 C177.21162185 310.28017847 187.35896557 284.6497822 192.37890625 259.23828125 C192.5397168 258.48385742 192.70052734 257.72943359 192.86621094 256.95214844 C195.4873431 244.3112657 195.66342354 231.65829762 195.69140625 218.80078125 C195.69508209 217.98708069 195.69875793 217.17338013 195.70254517 216.33502197 C195.76064314 191.69340401 191.06184964 166.95315598 181.37890625 144.23828125 C180.82757322 142.89475755 180.27680647 141.55100135 179.7265625 140.20703125 C161.28214014 95.90663271 125.04706582 61.10233373 81.25878906 42.05664062 C79.61077944 41.33922137 77.97425549 40.59553617 76.33984375 39.84765625 C60.24066014 32.99140016 41.4565577 29.22245902 23.98046875 28.96484375 C23.19614471 28.95236099 22.41182068 28.93987823 21.60372925 28.92701721 C2.95883602 28.68798012 -14.50297918 29.30514836 -32.62109375 34.23828125 C-33.36633301 34.44114746 -34.11157227 34.64401367 -34.87939453 34.85302734 C-39.22394013 36.08681645 -43.41640036 37.5960441 -47.62109375 39.23828125 C-48.26739746 39.47740234 -48.91370117 39.71652344 -49.57958984 39.96289062 C-71.3714428 48.02665357 -91.03499408 60.52459407 -107.78125 76.57421875 C-110.30731697 78.9439267 -112.91935276 81.07688846 -115.62109375 83.23828125 C-126.13418383 93.85197506 -134.91000008 106.50016091 -142.62109375 119.23828125 C-142.98944336 119.8327002 -143.35779297 120.42711914 -143.73730469 121.03955078 C-167.67215062 159.88956307 -177.74118308 212.93841849 -167.66796875 257.71484375 C-167.01234846 260.43373055 -166.30061871 263.13273459 -165.5546875 265.828125 C-164.80941871 268.55038298 -164.20382233 271.2186834 -163.68359375 273.98828125 C-162.70010897 278.49874592 -160.9321232 282.59297161 -159.09375 286.81640625 C-158.03521865 289.27601755 -157.02571377 291.72930371 -156.0546875 294.22265625 C-150.1981019 309.16084239 -142.72877438 322.27225147 -133.00390625 335.03125 C-128.89345139 340.56351794 -126.99965264 343.88699247 -127.1953125 350.796875 C-127.89619391 354.81569042 -129.65991271 356.48369424 -132.62109375 359.23828125 C-136.9277206 362.10936581 -140.57467327 362.16609847 -145.62109375 361.23828125 C-153.63409863 357.10399168 -158.79033722 347.59042909 -163.62109375 340.23828125 C-164.00410645 339.65546387 -164.38711914 339.07264648 -164.78173828 338.47216797 C-181.52628028 312.59556139 -191.7105642 283.55760301 -196.62109375 253.23828125 C-196.80510742 252.18092773 -196.98912109 251.12357422 -197.17871094 250.03417969 C-198.74729372 240.32909797 -199.01928726 230.79336922 -198.99609375 220.98828125 C-198.99588226 220.15945435 -198.99567078 219.33062744 -198.99545288 218.47668457 C-198.94206178 197.39858458 -196.01054042 177.35527272 -189.62109375 157.23828125 C-189.17568311 155.77216523 -188.73037208 154.30601894 -188.28515625 152.83984375 C-177.36295609 117.74757451 -157.67550387 87.82358677 -132.62109375 61.23828125 C-131.93144531 60.50609375 -131.24179687 59.77390625 -130.53125 59.01953125 C-125.28143275 53.60867666 -119.56115343 48.87167799 -113.62109375 44.23828125 C-113.07598145 43.81144043 -112.53086914 43.38459961 -111.96923828 42.94482422 C-83.23477194 20.62481131 -51.11280429 8.1463912 -15.62109375 1.23828125 C-14.71012939 1.05418701 -13.79916504 0.87009277 -12.8605957 0.68041992 C-8.56516727 0.09416467 -4.3309545 0.03725446 0 0 Z " fill="#C7532A" transform="translate(614.62109375,427.76171875)"/>
<path d="M0 0 C0.74926758 0.1453418 1.49853516 0.29068359 2.27050781 0.44042969 C27.96105843 5.62406475 48.87570596 18.46406382 68 36 C68.96808594 36.88429688 69.93617188 37.76859375 70.93359375 38.6796875 C86.09950996 53.17873364 97.0883065 71.27072565 104 91 C104.51820313 92.27810547 104.51820313 92.27810547 105.046875 93.58203125 C116.58819821 122.47972899 114.62578978 158.52542903 106 188 C105.64035156 189.24394531 105.28070312 190.48789062 104.91015625 191.76953125 C98.40118204 212.69906113 86.47679647 231.25906819 73.41479492 248.67626953 C62.87898714 262.7690442 53.19824819 277.42291459 45 293 C44.67950684 293.60392578 44.35901367 294.20785156 44.02880859 294.83007812 C39.71911049 303.0041756 36.06643873 311.28485833 33 320 C32.66355469 320.92039062 32.32710937 321.84078125 31.98046875 322.7890625 C29.41898791 330.36124888 28.00442155 338.02472343 26.5625 345.875 C22.85728759 365.80862092 16.77121016 383.72038142 3 399 C2.15501953 399.94939453 2.15501953 399.94939453 1.29296875 400.91796875 C-3.25270373 405.74042691 -8.42270479 409.4522424 -14 413 C-14.94488281 413.61230469 -15.88976562 414.22460938 -16.86328125 414.85546875 C-33.93976019 425.03192189 -56.37745191 426.93864356 -75.52734375 422.16796875 C-97.28054701 414.85164954 -112.42585349 400.09748034 -123 380 C-127.54283939 370.7295646 -128.37752856 361.44514538 -128.4375 351.25 C-128.47037109 350.24839844 -128.50324219 349.24679687 -128.53710938 348.21484375 C-128.59652599 340.05856304 -128.59652599 340.05856304 -125.5859375 336.3828125 C-121.5013116 332.61903335 -118.88579832 331.47398806 -113.1640625 331.61328125 C-109.22554439 332.31709586 -105.96246407 334.35742642 -103 337 C-101.32060184 339.83074788 -100.74765746 341.95503052 -100.69140625 345.23046875 C-100.66626953 346.03419922 -100.64113281 346.83792969 -100.61523438 347.66601562 C-100.58048805 349.32740452 -100.54915444 350.98886882 -100.52148438 352.65039062 C-100.15166086 363.9886383 -95.7078623 374.74265783 -88.01171875 383.1796875 C-77.31493446 392.8587195 -65.79462986 395.58753592 -51.52734375 395.2109375 C-38.2413641 394.41642709 -25.06404789 389.04615692 -16 379 C-6.84375861 368.2752376 -2.84697339 355.51395063 -0.640625 341.8515625 C4.58652126 310.42493928 17.64929802 280.9440959 36 255 C36.93649776 253.66297039 37.87267211 252.32571421 38.80859375 250.98828125 C42.72587441 245.40722972 46.6522269 239.83324983 50.67578125 234.328125 C63.52614351 216.70949803 73.93370485 198.048533 80 177 C80.58974609 175.13021484 80.58974609 175.13021484 81.19140625 173.22265625 C84.121544 163.01383238 84.39794391 152.79721334 84.4375 142.25 C84.4467601 141.201539 84.4467601 141.201539 84.45620728 140.13189697 C84.51126651 130.43208165 83.38251045 121.43779098 81 112 C80.77723389 111.02716064 80.55446777 110.05432129 80.32495117 109.05200195 C74.31996577 83.05079765 55.35342143 58.05949868 33 44 C23.22697396 38.22503007 13.08868782 32.71680234 2 30 C1.32130859 29.82629883 0.64261719 29.65259766 -0.05664062 29.47363281 C-7.49367905 27.7529421 -14.76880972 27.70275658 -22.375 27.75 C-23.6125 27.74226562 -24.85 27.73453125 -26.125 27.7265625 C-37.37796461 27.75025295 -47.76410324 29.07385903 -58.3125 33.0625 C-59.12009766 33.36559082 -59.92769531 33.66868164 -60.75976562 33.98095703 C-73.23831335 38.85585067 -84.07730269 46.01749996 -94 55 C-94.4856543 55.43650879 -94.97130859 55.87301758 -95.47167969 56.32275391 C-113.45414117 72.69406999 -124.31086176 94.55023272 -130 118 C-130.24492188 118.98613281 -130.48984375 119.97226562 -130.7421875 120.98828125 C-132.09466432 127.53760394 -132.1964093 134.08631287 -132.25 140.75 C-132.2641394 142.0817627 -132.2641394 142.0817627 -132.27856445 143.44042969 C-132.25106322 148.98011295 -131.47987234 153.66785295 -130 159 C-129.30980065 164.32439499 -130.01126726 168.46537102 -133 173 C-136.4481245 176.11172211 -138.64914184 177.89804844 -143.3125 178.25 C-148.70970423 177.88408785 -150.88584343 176.18969261 -154.53515625 172.29296875 C-161.67664439 163.50222502 -160.27165833 148.76325175 -160.3125 138.125 C-160.31805908 136.88935303 -160.32361816 135.65370605 -160.3293457 134.38061523 C-160.18588703 116.18588703 -160.18588703 116.18588703 -157 113 C-156.74557062 111.50407786 -156.52297369 110.0027369 -156.3125 108.5 C-151.44869369 81.47113352 -135.75511795 57.46769842 -117 38 C-116.35804688 37.29488281 -115.71609375 36.58976563 -115.0546875 35.86328125 C-86.50884209 5.40202197 -40.45046359 -7.85847452 0 0 Z " fill="#C55229" transform="translate(651,510)"/>
<path d="M0 0 C16.59798659 13.07118997 26.64815963 31.26333638 30.2578125 51.95703125 C31.66964828 64.21433276 32.94372864 82.02083175 26.859375 92.98046875 C23.99393802 96.55195765 22.34332391 97.42690376 17.8828125 98.12890625 C9.77242787 98.44878147 9.77242787 98.44878147 6.60546875 96.2265625 C1.99568161 90.91016565 1.47014895 86.53405817 1.6875 79.6875 C2.0175 79.0275 2.3475 78.3675 2.6875 77.6875 C2.95809834 74.02704242 2.91922194 70.35682042 2.9375 66.6875 C2.958125 65.68332031 2.97875 64.67914062 3 63.64453125 C3.07400971 49.34215482 -2.10882467 37.29773944 -11.92578125 26.9453125 C-22.25435503 17.17458313 -34.30205367 13.22443531 -48.296875 13.48046875 C-60.79445388 13.96688359 -71.84114376 18.41821336 -81.125 26.875 C-92.55271775 39.36706401 -93.5586004 52.69689266 -94.3125 68.6875 C-93.51585937 68.33816406 -92.71921875 67.98882813 -91.8984375 67.62890625 C-90.83882812 67.17386719 -89.77921875 66.71882812 -88.6875 66.25 C-87.64335938 65.79753906 -86.59921875 65.34507812 -85.5234375 64.87890625 C-72.92303665 60.20357503 -57.49171633 61.64836899 -45.3125 66.6875 C-44.30832031 67.08839844 -43.30414062 67.48929688 -42.26953125 67.90234375 C-26.62472255 74.88482629 -13.26219981 89.76142584 -7.15625 105.70703125 C-0.65183467 124.54660565 -1.44701098 144.41777884 -10.0390625 162.4296875 C-15.54086903 173.14647653 -23.44817175 181.50104385 -32.625 189.1875 C-39.7829711 195.48470243 -42.57565327 203.59946728 -45.75 212.375 C-49.94138843 223.56989051 -57.70208882 231.75335041 -68.41796875 236.92578125 C-76.40571111 240.13734777 -87.66861006 240.10302401 -95.75 237.125 C-106.97058153 231.72180051 -114.59142836 223.3111919 -118.75 211.5625 C-122.31418723 198.46295473 -121.14568352 185.97299117 -114.875 173.92578125 C-110.98527369 167.37121841 -106.15798845 162.03139482 -100.86328125 156.609375 C-95.49829529 150.46387807 -93.40326033 145.25312715 -93.67578125 137.01171875 C-94.59986717 132.18719653 -96.87777304 129.31244667 -99.953125 125.56640625 C-116.60792136 105.24424579 -124.21618527 79.81753619 -122.3125 53.6875 C-120.11115394 33.64341566 -110.57075573 15.30398128 -95.1875 2.1875 C-66.43534192 -20.59722904 -29.82356778 -21.34025204 0 0 Z " fill="#C6532A" transform="translate(672.3125,589.3125)"/>
<path d="M0 0 C0.59039063 0.34160156 1.18078125 0.68320312 1.7890625 1.03515625 C2.89121094 1.65583984 2.89121094 1.65583984 4.015625 2.2890625 C14.29308292 8.5964656 20.5772849 17.48642402 23.7890625 29.03515625 C24.91433971 39.08253827 24.45442709 48.93615048 19.7890625 58.03515625 C19.46164062 58.70160156 19.13421875 59.36804688 18.796875 60.0546875 C14.99173455 66.87338809 9.15109043 72.43241808 3.7890625 78.03515625 C3.22445312 78.64746094 2.65984375 79.25976562 2.078125 79.890625 C0.7890625 81.03515625 0.7890625 81.03515625 -1.2109375 81.03515625 C-1.5821875 81.87046875 -1.5821875 81.87046875 -1.9609375 82.72265625 C-3.2109375 85.03515625 -3.2109375 85.03515625 -5.0234375 87.16015625 C-9.44850006 92.97595275 -12.09431199 99.40863696 -14.2734375 106.34765625 C-16.11802722 112.14175056 -18.08136233 115.61543947 -23.2109375 119.03515625 C-27.71376161 119.76033017 -31.20379404 119.63515661 -35.1484375 117.28515625 C-39.64686859 112.37777688 -39.77114061 107.91027771 -39.640625 101.40625 C-38.55105722 92.85809548 -32.30331086 86.82217319 -26.90063477 80.50244141 C-18.13424621 70.16498568 -13.66476584 60.10923498 -13.7734375 46.53515625 C-13.7434668 45.20677734 -13.7434668 45.20677734 -13.71289062 43.8515625 C-13.71940105 34.98436437 -16.75522103 28.48393996 -22.0859375 21.47265625 C-22.77300781 20.55097656 -23.46007812 19.62929688 -24.16796875 18.6796875 C-25.45516756 17.01346648 -26.76256214 15.36247113 -28.09765625 13.734375 C-32.14866135 8.72019386 -32.14866135 8.72019386 -32.4609375 5.28515625 C-27.07731425 -4.4053656 -8.97957564 -4.25244221 0 0 Z " fill="#040100" transform="translate(618.2109375,681.96484375)"/>
<path d="M0 0 C0.33 0.99 0.66 1.98 1 3 C-2.96 6.96 -6.92 10.92 -11 15 C-11.99 14.67 -12.98 14.34 -14 14 C-9.38 9.38 -4.76 4.76 0 0 Z " fill="#B84D28" transform="translate(490,481)"/>
<path d="M0 0 C6.73890104 0.37438339 12.35711554 2.19407793 18 6 C18.33 6.99 18.66 7.98 19 9 C14.53202662 7.60121198 10.36177921 5.86369228 6.125 3.875 C4.97257813 3.33617187 3.82015625 2.79734375 2.6328125 2.2421875 C1.76398437 1.83226562 0.89515625 1.42234375 0 1 C0 0.67 0 0.34 0 0 Z " fill="#AA4722" transform="translate(759,323)"/>
<path d="M0 0 C0.93979382 3.03856659 0.99875808 5.20695472 0.44140625 8.328125 C0.30283203 9.12734375 0.16425781 9.9265625 0.02148438 10.75 C-0.12998047 11.575 -0.28144531 12.4 -0.4375 13.25 C-0.58509766 14.09046875 -0.73269531 14.9309375 -0.88476562 15.796875 C-1.2491936 17.86588544 -1.62362541 19.93312939 -2 22 C-2.33 22 -2.66 22 -3 22 C-4.0024305 16.65370398 -3.84888195 12.37625234 -3 7 C-2.34 7 -1.68 7 -1 7 C-1.33 5.35 -1.66 3.7 -2 2 C-1.34 2 -0.68 2 0 2 C0 1.34 0 0.68 0 0 Z " fill="#AA4421" transform="translate(370,594)"/>
<path d="M0 0 C0.66 0.99 1.32 1.98 2 3 C0.625 4.5 0.625 4.5 -1 6 C-1.66 6 -2.32 6 -3 6 C-3.3403125 6.86625 -3.3403125 6.86625 -3.6875 7.75 C-5.33038023 10.5663661 -7.39533227 12.08077114 -10 14 C-10.66 13.67 -11.32 13.34 -12 13 C-11.38511719 12.39671875 -10.77023437 11.7934375 -10.13671875 11.171875 C-9.32847656 10.37265625 -8.52023437 9.5734375 -7.6875 8.75 C-6.88699219 7.96109375 -6.08648438 7.1721875 -5.26171875 6.359375 C-3.31256349 4.32605933 -1.62578594 2.29398922 0 0 Z " fill="#B44925" transform="translate(936,939)"/>
<path d="M0 0 C0.33 0 0.66 0 1 0 C1.28545428 8.13544686 0.18396883 15.97649696 -1 24 C-1.33 24 -1.66 24 -2 24 C-2.87890625 17.84765625 -2.87890625 17.84765625 -3 16 C-2.67 15.67 -2.34 15.34 -2 15 C-2 13.845 -2 12.69 -2 11.5 C-2 8 -2 8 -1 7 C-0.63239269 4.67182036 -0.29758419 2.3381615 0 0 Z " fill="#A64224" transform="translate(991,682)"/>
<path d="M0 0 C0.66 0.66 1.32 1.32 2 2 C-3.94 6.95 -3.94 6.95 -10 12 C-10.66 11.34 -11.32 10.68 -12 10 C-8.04 6.7 -4.08 3.4 0 0 Z " fill="#BB4C26" transform="translate(404,346)"/>
<path d="M0 0 C0 0.66 0 1.32 0 2 C-4.76307437 2.95261487 -9.1666528 3.08333357 -14 3 C-14 3.66 -14 4.32 -14 5 C-15.32 4.34 -16.64 3.68 -18 3 C-16.12743583 2.49095343 -14.25180659 1.99317545 -12.375 1.5 C-11.33085938 1.2215625 -10.28671875 0.943125 -9.2109375 0.65625 C-6.04312582 0.00881404 -3.22258533 -0.1161292 0 0 Z " fill="#B24925" transform="translate(559,275)"/>
<path d="M0 0 C0.66 0.66 1.32 1.32 2 2 C-1.80411834 5.91939465 -5.81576108 9.49102731 -10 13 C-10.66 12.67 -11.32 12.34 -12 12 C-8.04 8.04 -4.08 4.08 0 0 Z " fill="#180904" transform="translate(327,342)"/>
<path d="M0 0 C0.66 0.33 1.32 0.66 2 1 C-4.92938497 9.81548975 -4.92938497 9.81548975 -11 11 C-7.33333333 7.33333333 -3.66666667 3.66666667 0 0 Z " fill="#B64B26" transform="translate(341,291)"/>
<path d="M0 0 C0.33 0 0.66 0 1 0 C1.103125 1.03125 1.20625 2.0625 1.3125 3.125 C2.00043268 7.00243875 2.97158173 9.64530825 5 13 C5.99 13.66 6.98 14.32 8 15 C8 15.66 8 16.32 8 17 C4.13375348 15.48111744 2.09450161 13.59057418 0 10 C-0.3294285 6.63879981 -0.23524914 3.36536965 0 0 Z " fill="#B04A26" transform="translate(872,891)"/>
<path d="M0 0 C0 0.66 0 1.32 0 2 C0.99 2.33 1.98 2.66 3 3 C-2.94 2.34 -8.88 1.68 -15 1 C-15 0.67 -15 0.34 -15 0 C-9.65370398 -1.0024305 -5.37625234 -0.84888195 0 0 Z " fill="#A24423" transform="translate(671,378)"/>
<path d="M0 0 C1 4 1 4 0.00390625 5.703125 C-1.33072917 7.13541667 -2.66536458 8.56770833 -4 10 C-4.99 9.34 -5.98 8.68 -7 8 C-4.69 5.36 -2.38 2.72 0 0 Z " fill="#B44A25" transform="translate(944,930)"/>
<path d="M0 0 C0.66 0.66 1.32 1.32 2 2 C0.71937515 3.7074998 -0.61767557 5.37373596 -2 7 C-2.66 7 -3.32 7 -4 7 C-4.33 7.99 -4.66 8.98 -5 10 C-5.66 9.67 -6.32 9.34 -7 9 C-4.69 6.03 -2.38 3.06 0 0 Z " fill="#BB4D27" transform="translate(956,915)"/>
<path d="M0 0 C-1.62170379 1.00533667 -3.24747237 2.00411907 -4.875 3 C-6.23238281 3.8353125 -6.23238281 3.8353125 -7.6171875 4.6875 C-10 6 -10 6 -12 6 C-10.90012224 2.70036671 -10.54413252 2.38935228 -7.6875 0.75 C-7.09324219 0.39421875 -6.49898437 0.0384375 -5.88671875 -0.328125 C-3.5508436 -1.15994803 -2.30725794 -0.7945524 0 0 Z " fill="#B74C27" transform="translate(580,549)"/>
<path d="M0 0 C-1.5830577 4.2742558 -4.50568404 6.26531794 -8 9 C-7.53918323 4.85264908 -4.48412936 0 0 0 Z " fill="#B44A25" transform="translate(335,333)"/>
<path d="M0 0 C0.75 1.5625 0.75 1.5625 1 4 C-0.13084437 6.50286409 -1.52139516 8.67007722 -3 11 C-3.66 11 -4.32 11 -5 11 C-3.77472971 6.94718288 -2.30119506 3.55639236 0 0 Z " fill="#AD4924" transform="translate(308,459)"/>
<path d="M0 0 C0.99 0.66 1.98 1.32 3 2 C-2.75 7 -2.75 7 -5 7 C-3.70700306 4.11562221 -2.34058637 2.12780579 0 0 Z " fill="#110603" transform="translate(319,308)"/>
<path d="M0 0 C0.99 0.33 1.98 0.66 3 1 C2.67 1.99 2.34 2.98 2 4 C2.66 4 3.32 4 4 4 C4.33 6.31 4.66 8.62 5 11 C0 3.5 0 3.5 0 0 Z " fill="#AE4724" transform="translate(284,781)"/>
<path d="M0 0 C-6.625 2.875 -6.625 2.875 -10 4 C-10.66 3.34 -11.32 2.68 -12 2 C-10.75579353 1.4654744 -9.50429064 0.94791389 -8.25 0.4375 C-7.55390625 0.14746094 -6.8578125 -0.14257812 -6.140625 -0.44140625 C-3.69987216 -1.07831803 -2.3596345 -0.80248831 0 0 Z " fill="#9F4021" transform="translate(594,654)"/>
<path d="M0 0 C0.86625 0.3403125 0.86625 0.3403125 1.75 0.6875 C0.5625 2.25 0.5625 2.25 -1.25 3.6875 C-3.9375 3.375 -3.9375 3.375 -6.25 2.6875 C-2.80384615 -0.38942308 -2.80384615 -0.38942308 0 0 Z " fill="#B64D26" transform="translate(496.25,293.3125)"/>
<path d="M0 0 C0.33 0 0.66 0 1 0 C1.36923077 7.38461538 1.36923077 7.38461538 -0.5 10.5 C-0.995 10.995 -1.49 11.49 -2 12 C-2.26252625 7.66831683 -1.29243536 4.1196377 0 0 Z " fill="#973E22" transform="translate(338,963)"/>
<path d="M0 0 C0 3.99904969 -1.72586967 5.80200422 -4 9 C-4.66 8.67 -5.32 8.34 -6 8 C-4.02 5.36 -2.04 2.72 0 0 Z " fill="#B24926" transform="translate(466,507)"/>
</svg>
